<svg width="580" height="400" xmlns="http://www.w3.org/2000/svg">
 <!-- Created with Method Draw - http://github.com/duopixel/Method-Draw/ -->

 <g>
  <title>background</title>
  <rect fill="#fff" id="canvas_background" height="402" width="582" y="-1" x="-1"/>
  <g display="none" overflow="visible" y="0" x="0" height="100%" width="100%" id="canvasGrid">
   <rect fill="url(#gridpattern)" stroke-width="0" y="0" x="0" height="100%" width="100%"/>
  </g>
 </g>
 <g>
  <title>Layer 1</title>
  <!-- Created with Method Draw - http://github.com/duopixel/Method-Draw/ -->
  <g stroke="null" id="svg_15">
   <g stroke="null" transform="matrix(1.1370396021097549,0,0,1.11254870547547,-5946.033486805716,-4013.440771117308) " id="svg_12">
    <title stroke="null" transform="translate(7.935129165649414,0) translate(5197.52490234375,0) translate(0,3584.5) ">background</title>
    <rect stroke="null" x="5204.460032" y="3583.5" width="582" height="402" id="svg_10" fill="#fff"/>
    <g stroke="null" id="svg_9" display="none">
     <rect stroke="null" id="svg_13" width="580" height="400" x="5205.460032" y="3584.5" stroke-width="0" fill="url(#gridpattern)"/>
    </g>
   </g>
   <g stroke="null" transform="matrix(1.129627765235867,0,0,1.0175936947284616,-5916.505486022397,-3621.4305796330295) " id="svg_14">
    <title stroke="null" transform="translate(0,0.7388800382614136) translate(0,-4.547473508864641e-13) translate(12.172420501708984,-51.745208740234375) translate(0,0.6758173108100891) translate(0,0.6758173108100891) translate(0,0.6758173108100891) translate(0,0.6758173108100891) translate(0,0.6758173108100891) translate(0,0.6758173108100891) translate(0,0.6758173108100891) translate(0,0.6758173108100891) translate(0,0.6758173108100891) translate(0,0.6758173108100891) translate(0,0.6758173108100891) translate(0,0.6758173108100891) translate(0,0.6758173108100891) translate(0,0.6758173108100891) translate(0,0.6758173108100891) translate(0,0.6758173108100891) translate(0,0.6758173108100891) translate(0,0.6758173108100891) translate(0,0.6758173108100891) translate(0,0.6758173108100891) translate(0,0.6758173108100891) translate(0,0.6758173108100891) translate(0,0.6758173108100891) translate(0,0.6758173108100891) translate(0,0.6758173108100891) translate(0,0.6758173108100891) translate(0,0.6758173108100891) translate(0,0.6758173108100891) translate(0,0.6758173108100891) translate(0,0.6758173108100891) translate(0,0.6758173108100891) translate(0,0.6758173108100891) translate(0,0.6758173108100891) translate(0,0.6758173108100891) translate(0,0.6758173108100891) translate(0,0.6758173108100891) translate(0,0.6758173108100891) translate(0,0.6758173108100891) translate(0,0.6758173108100891) translate(0,0.6758173108100891) translate(0,0.6758173108100891) translate(0,0.6758173108100891) translate(0,0.6758173108100891) translate(0,0.6758173108100891) translate(0,0.6758173108100891) translate(0,0.6758173108100891) translate(0,0.6758173108100891) translate(0,0.6758173108100891) translate(0,0.6758173108100891) translate(0,0.6758173108100891) translate(0,0.6758173108100891) translate(0,0.6758173108100891) translate(161.34762573242188,-12.840529441833496) translate(-161.34762573242188,13.51634693145752) translate(5197.52490234375,0) translate(0,3584.5) ">Layer 1</title>
    <rect stroke="#000" fill="#fff" stroke-width="1.5" x="5243.197323" y="3869.765114" width="506" height="80" id="svg_8"/>
    <rect stroke="#000" fill="#fff" stroke-width="1.5" x="5650.197323" y="3594.765114" width="99" height="275" id="svg_7"/>
   </g>
  </g>
  <rect id="svg_16" height="6.766917" width="31.578947" y="390.726817" x="415.939838" stroke-width="1.5" stroke="#000" fill="#fff"/>
  <rect id="svg_18" height="6.766917" width="31.578947" y="390.726817" x="374.586455" stroke-width="1.5" stroke="#000" fill="#fff"/>
  <rect id="svg_19" height="6.766917" width="31.578947" y="390.726817" x="327.969914" stroke-width="1.5" stroke="#000" fill="#fff"/>
  <rect id="svg_20" height="6.766917" width="31.578947" y="390.726817" x="282.105253" stroke-width="1.5" stroke="#000" fill="#fff"/>
  <rect id="svg_21" height="6.766917" width="31.578947" y="390.726817" x="198.646607" stroke-width="1.5" stroke="#000" fill="#fff"/>
  <rect id="svg_22" height="6.766917" width="31.578947" y="390.726817" x="153.533826" stroke-width="1.5" stroke="#000" fill="#fff"/>
  <rect id="svg_23" height="6.766917" width="31.578947" y="390.726817" x="80.601495" stroke-width="1.5" stroke="#000" fill="#fff"/>
  <rect id="svg_25" height="30.827068" width="6.766917" y="250.125313" x="571.578936" fill-opacity="null" stroke-opacity="null" stroke-width="1.5" stroke="#000" fill="blue"/>
  <rect id="svg_26" height="30.827068" width="6.766917" y="211.779449" x="571.578936" fill-opacity="null" stroke-opacity="null" stroke-width="1.5" stroke="#000" fill="#fff"/>
  <rect id="svg_27" height="30.827068" width="6.766917" y="138.847119" x="571.578936" fill-opacity="null" stroke-opacity="null" stroke-width="1.5" stroke="#000" fill="#fff"/>
  <rect id="svg_28" height="30.827068" width="6.766917" y="100.501255" x="571.578936" fill-opacity="null" stroke-opacity="null" stroke-width="1.5" stroke="#000" fill="#fff"/>
  <rect id="svg_29" height="30.827068" width="6.766917" y="100.501255" x="466.315779" fill-opacity="null" stroke-opacity="null" stroke-width="1.5" stroke="#000" fill="#fff"/>
  <rect id="svg_30" height="30.827068" width="6.766917" y="245.614035" x="466.315779" fill-opacity="null" stroke-opacity="null" stroke-width="1.5" stroke="#000" fill="#fff"/>
  <rect id="svg_31" height="6.766917" width="31.578947" y="390.726817" x="14.436083" stroke-width="1.5" stroke="#000" fill="#fff"/>
 </g>
</svg>